<svg width="28" height="18" viewBox="0 0 28 18" fill="none" xmlns="http://www.w3.org/2000/svg">
<path d="M3.22949 7.53516C4.64058 8.12948 6.05167 8.72381 7.42149 9.30075C7.31865 9.95961 7.18556 10.5783 7.13203 11.2037C7.03156 12.3769 7.233 13.514 7.66557 14.6089C7.78568 14.9123 7.78347 15.2002 7.54842 15.4456C7.46179 15.5359 7.34463 15.6084 7.22826 15.6572C6.30601 16.0393 5.38194 16.4156 4.45649 16.7886C3.97633 16.9822 3.59489 16.811 3.40333 16.326C2.40716 13.8034 2.24546 11.226 2.90153 8.59642C2.96746 8.33121 3.04431 8.06848 3.11612 7.80433C3.15391 7.71461 3.1917 7.62488 3.22949 7.53516Z" fill="#FF3338"/>
<path d="M24.4541 7.53516C23.0508 8.14758 21.6474 8.76 20.2852 9.35451C20.3965 10.012 20.5375 10.6289 20.5991 11.2535C20.7146 12.4254 20.5278 13.565 20.1094 14.6654C19.9932 14.9703 19.9991 15.2581 20.2373 15.5005C20.325 15.5896 20.4431 15.6606 20.5601 15.708C21.4872 16.0781 22.416 16.4426 23.3462 16.8036C23.8288 16.991 24.208 16.8149 24.3933 16.3275C25.357 13.7924 25.4855 11.213 24.7957 8.59212C24.7264 8.32777 24.6461 8.06605 24.5709 7.80285C24.532 7.71362 24.493 7.62439 24.4541 7.53516Z" fill="#17B518"/>
<path d="M3.5197 6.69116C3.79249 6.25249 4.04885 5.80267 4.34082 5.377C5.56774 3.58934 7.16568 2.22839 9.11022 1.27189C9.14659 1.25411 9.17889 1.22757 9.20732 1.20855C9.78966 2.64688 10.3618 4.05766 10.9423 5.49028C9.54268 6.22979 8.44231 7.30731 7.65275 8.74885C6.23747 8.15276 4.8222 7.55667 3.40632 6.96033C3.44411 6.87061 3.4819 6.78088 3.5197 6.69116Z" fill="#FF9000"/>
<path d="M24.2967 7.0185C22.8626 7.6026 21.4531 8.17665 20.0272 8.75788C19.288 7.3577 18.2041 6.2624 16.7852 5.4859C17.3815 4.07003 17.9746 2.66193 18.5742 1.23828C21.1449 2.53087 23.0456 4.45756 24.2967 7.0185Z" fill="#49E74A"/>
<path d="M9.83496 0.940354C12.5396 0.0419976 15.2458 0.0577851 17.9724 0.988538C17.3768 2.40262 16.7845 3.80892 16.1841 5.23437C14.6496 4.76763 13.1024 4.75405 11.5702 5.20955C10.989 3.77872 10.4154 2.36804 9.83496 0.940354Z" fill="#FFFF00"/>
<path d="M15.4464 13.5077C14.8273 14.1208 13.9022 14.2942 13.0943 13.9478C12.2908 13.6032 11.7377 12.7881 11.8203 11.9075C11.9141 10.9079 12.0579 9.90952 12.2428 8.92231C12.5558 7.25055 12.9188 5.58779 13.2587 3.92075C13.3093 3.67159 13.4103 3.46353 13.6539 3.34837C14.0657 3.15401 14.5165 3.3839 14.621 3.85996C14.8307 4.81977 15.0521 5.7783 15.2297 6.74453C15.5234 8.34308 15.7965 9.94505 16.0564 11.5492C16.1754 12.2915 15.9935 12.9623 15.4464 13.5077Z" fill="black"/>
</svg>
