<svg width="82" height="80" viewBox="0 0 82 80" fill="none" xmlns="http://www.w3.org/2000/svg">
<g clip-path="url(#clip0_1066_2304)">
<path d="M65 11.0637C65 12.8762 65 14.6887 65 16.5012C64.2 16.5012 63.3875 16.5012 62.55 16.5012C62.55 24.2262 62.55 31.8762 62.55 39.5887C61.4625 39.5887 60.4125 39.5887 59.325 39.5887C59.4 39.7512 59.4375 39.8512 59.475 39.9512C60.6625 42.5137 59.9 45.3887 57.6 47.0137C56.825 47.5637 55.95 47.8137 55.05 48.0137C54.6125 48.0137 54.175 48.0137 53.7375 48.0137C53.65 47.9887 53.5625 47.9387 53.475 47.9262C51.8875 47.6387 50.6375 46.8262 49.7375 45.4887C49.55 45.2137 49.375 45.1012 49.0375 45.1012C41.5875 45.1137 34.1375 45.1137 26.6875 45.1137C26.525 45.1137 26.35 45.1137 26.175 45.1137C26.175 46.1137 26.175 47.0637 26.175 48.0137C25.2375 48.0137 24.3 48.0137 23.3625 48.0137C23.35 47.8262 23.3375 47.6387 23.3375 47.4512C23.3375 45.0137 23.3375 42.5762 23.3375 40.1387C23.3375 39.9637 23.3375 39.7762 23.3375 39.5637C22 39.5637 20.7375 39.5637 19.425 39.5637C19.425 31.8637 19.425 24.2137 19.425 16.5012C18.575 16.5012 17.7875 16.5012 17 16.5012C17 14.6887 17 12.8762 17 11.0637C17.025 11.0262 17.0625 10.9887 17.0625 10.9512C17.35 8.23867 19.85 5.55117 23.575 5.57617C33.5375 5.65117 43.5125 5.60117 53.475 5.60117C53.675 5.60117 53.875 5.60117 54.1 5.60117C54.1 4.65117 54.1 3.76367 54.1 2.81367C52.9875 2.81367 51.9125 2.81367 50.75 2.81367C50.75 1.85117 50.75 0.926172 50.75 0.0136719C53.9375 0.0136719 57.125 0.0136719 60.3125 0.0136719C60.3125 0.938672 60.3125 1.87617 60.3125 2.85117C59.1375 2.85117 58.05 2.85117 56.9625 2.85117C56.9625 3.77617 56.9625 4.66367 56.9625 5.61367C57.6875 5.61367 58.375 5.58867 59.075 5.61367C61.725 5.71367 63.9875 7.50117 64.725 10.0387C64.8375 10.3762 64.9125 10.7262 65 11.0637ZM22.275 36.7262C34.7875 36.7262 47.25 36.7262 59.7125 36.7262C59.7125 29.9762 59.7125 23.2512 59.7125 16.5387C47.2125 16.5387 34.75 16.5387 22.275 16.5387C22.275 23.2637 22.275 29.9762 22.275 36.7262ZM62.1625 13.6762C62.1625 12.8762 62.2375 12.1262 62.15 11.3887C61.9375 9.57617 60.5375 8.40117 58.6625 8.40117C46.8875 8.40117 35.1125 8.40117 23.325 8.40117C23.2125 8.40117 23.1 8.40117 23 8.41367C21.7375 8.50117 20.8125 9.11367 20.2125 10.2012C19.6125 11.3012 19.85 12.5012 19.825 13.6762C33.975 13.6762 48.0375 13.6762 62.1625 13.6762ZM49.425 39.5887C41.725 39.5887 33.975 39.5887 26.1875 39.5887C26.1875 40.4887 26.1875 41.3637 26.1875 42.2637C33.7375 42.2637 41.25 42.2637 48.6875 42.2637C48.9375 41.3512 49.175 40.4887 49.425 39.5887ZM57.225 42.3887C57.225 40.8387 55.9875 39.5762 54.45 39.5637C52.9 39.5512 51.6125 40.8387 51.6125 42.3887C51.625 43.9262 52.8875 45.1887 54.425 45.1887C55.9625 45.1887 57.225 43.9387 57.225 42.3887Z" fill="#B338FF"/>
<path d="M52.3504 32.4637C51.4379 32.1637 50.5754 31.8762 49.6879 31.5762C50.0754 30.3887 50.4629 29.2387 50.8504 28.0387C49.5754 28.0387 48.3629 28.0387 47.0879 28.0387C47.8879 25.6262 48.6879 23.2387 49.4879 20.8262C50.3754 21.1262 51.2504 21.4137 52.1504 21.7137C51.7629 22.8887 51.3879 24.0387 50.9879 25.2262C52.2379 25.2262 53.4379 25.2262 54.7379 25.2262C53.9379 27.6637 53.1504 30.0387 52.3504 32.4637Z" fill="#B338FF"/>
<path d="M27.0605 21.1152C27.998 21.1152 28.8855 21.1152 29.823 21.1152C29.823 24.7902 29.823 28.4527 29.823 32.1402C28.9105 32.1402 27.998 32.1402 27.0605 32.1402C27.0605 28.4777 27.0605 24.8152 27.0605 21.1152Z" fill="#B338FF"/>
<path d="M32.4971 21.1152C33.4346 21.1152 34.3346 21.1152 35.2596 21.1152C35.2596 24.7902 35.2596 28.4527 35.2596 32.1402C34.3346 32.1402 33.4346 32.1402 32.4971 32.1402C32.4971 28.4777 32.4971 24.8152 32.4971 21.1152Z" fill="#B338FF"/>
<path d="M37.9365 21.1152C38.874 21.1152 39.774 21.1152 40.699 21.1152C40.699 24.7902 40.699 28.4527 40.699 32.1402C39.7865 32.1402 38.874 32.1402 37.9365 32.1402C37.9365 28.4777 37.9365 24.8152 37.9365 21.1152Z" fill="#B338FF"/>
</g>
<path d="M10.0081 70.08C9.69879 69.4293 9.25079 68.928 8.66413 68.576C8.07746 68.2133 7.39479 68.032 6.61613 68.032C5.83746 68.032 5.13346 68.2133 4.50413 68.576C3.88546 68.928 3.39479 69.44 3.03213 70.112C2.68013 70.7733 2.50413 71.5413 2.50413 72.416C2.50413 73.2907 2.68013 74.0587 3.03213 74.72C3.39479 75.3813 3.88546 75.8933 4.50413 76.256C5.13346 76.608 5.83746 76.784 6.61613 76.784C7.70413 76.784 8.60013 76.4587 9.30413 75.808C10.0081 75.1573 10.4188 74.2773 10.5361 73.168H6.08813V71.984H12.0881V73.104C12.0028 74.0213 11.7148 74.864 11.2241 75.632C10.7335 76.3893 10.0881 76.992 9.28813 77.44C8.48813 77.8773 7.59746 78.096 6.61613 78.096C5.58146 78.096 4.63746 77.856 3.78413 77.376C2.93079 76.8853 2.25346 76.208 1.75213 75.344C1.26146 74.48 1.01613 73.504 1.01613 72.416C1.01613 71.328 1.26146 70.352 1.75213 69.488C2.25346 68.6133 2.93079 67.936 3.78413 67.456C4.63746 66.9653 5.58146 66.72 6.61613 66.72C7.80013 66.72 8.84546 67.0133 9.75213 67.6C10.6695 68.1867 11.3361 69.0133 11.7521 70.08H10.0081ZM22.0133 73.28C22.0133 73.5573 21.9973 73.8507 21.9653 74.16H14.9573C15.0106 75.024 15.3039 75.7013 15.8373 76.192C16.3813 76.672 17.0373 76.912 17.8053 76.912C18.4346 76.912 18.9573 76.768 19.3733 76.48C19.7999 76.1813 20.0986 75.7867 20.2693 75.296H21.8373C21.6026 76.1387 21.1333 76.8267 20.4293 77.36C19.7253 77.8827 18.8506 78.144 17.8053 78.144C16.9733 78.144 16.2266 77.9573 15.5653 77.584C14.9146 77.2107 14.4026 76.6827 14.0293 76C13.6559 75.3067 13.4693 74.5067 13.4693 73.6C13.4693 72.6933 13.6506 71.8987 14.0133 71.216C14.3759 70.5333 14.8826 70.0107 15.5333 69.648C16.1946 69.2747 16.9519 69.088 17.8053 69.088C18.6373 69.088 19.3733 69.2693 20.0133 69.632C20.6533 69.9947 21.1439 70.496 21.4853 71.136C21.8373 71.7653 22.0133 72.48 22.0133 73.28ZM20.5093 72.976C20.5093 72.4213 20.3866 71.9467 20.1413 71.552C19.8959 71.1467 19.5599 70.8427 19.1333 70.64C18.7173 70.4267 18.2533 70.32 17.7413 70.32C17.0053 70.32 16.3759 70.5547 15.8533 71.024C15.3413 71.4933 15.0479 72.144 14.9733 72.976H20.5093ZM28.2071 69.072C29.2738 69.072 30.1378 69.3973 30.7991 70.048C31.4605 70.688 31.7911 71.616 31.7911 72.832V78H30.3511V73.04C30.3511 72.1653 30.1325 71.4987 29.6951 71.04C29.2578 70.5707 28.6605 70.336 27.9031 70.336C27.1351 70.336 26.5218 70.576 26.0631 71.056C25.6151 71.536 25.3911 72.2347 25.3911 73.152V78H23.9351V69.232H25.3911V70.48C25.6791 70.032 26.0685 69.6853 26.5591 69.44C27.0605 69.1947 27.6098 69.072 28.2071 69.072ZM42.1695 73.28C42.1695 73.5573 42.1535 73.8507 42.1215 74.16H35.1135C35.1668 75.024 35.4602 75.7013 35.9935 76.192C36.5375 76.672 37.1935 76.912 37.9615 76.912C38.5908 76.912 39.1135 76.768 39.5295 76.48C39.9562 76.1813 40.2548 75.7867 40.4255 75.296H41.9935C41.7588 76.1387 41.2895 76.8267 40.5855 77.36C39.8815 77.8827 39.0068 78.144 37.9615 78.144C37.1295 78.144 36.3828 77.9573 35.7215 77.584C35.0708 77.2107 34.5588 76.6827 34.1855 76C33.8122 75.3067 33.6255 74.5067 33.6255 73.6C33.6255 72.6933 33.8068 71.8987 34.1695 71.216C34.5322 70.5333 35.0388 70.0107 35.6895 69.648C36.3508 69.2747 37.1082 69.088 37.9615 69.088C38.7935 69.088 39.5295 69.2693 40.1695 69.632C40.8095 69.9947 41.3002 70.496 41.6415 71.136C41.9935 71.7653 42.1695 72.48 42.1695 73.28ZM40.6655 72.976C40.6655 72.4213 40.5428 71.9467 40.2975 71.552C40.0522 71.1467 39.7162 70.8427 39.2895 70.64C38.8735 70.4267 38.4095 70.32 37.8975 70.32C37.1615 70.32 36.5322 70.5547 36.0095 71.024C35.4975 71.4933 35.2042 72.144 35.1295 72.976H40.6655ZM45.5474 70.656C45.8034 70.1547 46.166 69.7653 46.6354 69.488C47.1154 69.2107 47.6967 69.072 48.3794 69.072V70.576H47.9954C46.3634 70.576 45.5474 71.4613 45.5474 73.232V78H44.0914V69.232H45.5474V70.656ZM49.5161 73.584C49.5161 72.688 49.6975 71.904 50.0601 71.232C50.4228 70.5493 50.9188 70.0213 51.5481 69.648C52.1881 69.2747 52.8975 69.088 53.6761 69.088C54.4441 69.088 55.1108 69.2533 55.6761 69.584C56.2415 69.9147 56.6628 70.3307 56.9401 70.832V69.232H58.4121V78H56.9401V76.368C56.6521 76.88 56.2201 77.3067 55.6441 77.648C55.0788 77.9787 54.4175 78.144 53.6601 78.144C52.8815 78.144 52.1775 77.952 51.5481 77.568C50.9188 77.184 50.4228 76.6453 50.0601 75.952C49.6975 75.2587 49.5161 74.4693 49.5161 73.584ZM56.9401 73.6C56.9401 72.9387 56.8068 72.3627 56.5401 71.872C56.2735 71.3813 55.9108 71.008 55.4521 70.752C55.0041 70.4853 54.5081 70.352 53.9641 70.352C53.4201 70.352 52.9241 70.48 52.4761 70.736C52.0281 70.992 51.6708 71.3653 51.4041 71.856C51.1375 72.3467 51.0041 72.9227 51.0041 73.584C51.0041 74.256 51.1375 74.8427 51.4041 75.344C51.6708 75.8347 52.0281 76.2133 52.4761 76.48C52.9241 76.736 53.4201 76.864 53.9641 76.864C54.5081 76.864 55.0041 76.736 55.4521 76.48C55.9108 76.2133 56.2735 75.8347 56.5401 75.344C56.8068 74.8427 56.9401 74.2613 56.9401 73.6ZM62.6486 70.432V75.6C62.6486 76.0267 62.7393 76.3307 62.9206 76.512C63.102 76.6827 63.4166 76.768 63.8646 76.768H64.9366V78H63.6246C62.814 78 62.206 77.8133 61.8006 77.44C61.3953 77.0667 61.1926 76.4533 61.1926 75.6V70.432H60.0566V69.232H61.1926V67.024H62.6486V69.232H64.9366V70.432H62.6486ZM70.5248 78.144C69.7034 78.144 68.9568 77.9573 68.2848 77.584C67.6234 77.2107 67.1008 76.6827 66.7168 76C66.3434 75.3067 66.1568 74.5067 66.1568 73.6C66.1568 72.704 66.3488 71.9147 66.7328 71.232C67.1274 70.5387 67.6608 70.0107 68.3328 69.648C69.0048 69.2747 69.7568 69.088 70.5888 69.088C71.4208 69.088 72.1728 69.2747 72.8448 69.648C73.5168 70.0107 74.0448 70.5333 74.4288 71.216C74.8234 71.8987 75.0208 72.6933 75.0208 73.6C75.0208 74.5067 74.8181 75.3067 74.4128 76C74.0181 76.6827 73.4794 77.2107 72.7968 77.584C72.1141 77.9573 71.3568 78.144 70.5248 78.144ZM70.5248 76.864C71.0474 76.864 71.5381 76.7413 71.9968 76.496C72.4554 76.2507 72.8234 75.8827 73.1008 75.392C73.3888 74.9013 73.5328 74.304 73.5328 73.6C73.5328 72.896 73.3941 72.2987 73.1168 71.808C72.8394 71.3173 72.4768 70.9547 72.0288 70.72C71.5808 70.4747 71.0954 70.352 70.5728 70.352C70.0394 70.352 69.5488 70.4747 69.1008 70.72C68.6634 70.9547 68.3114 71.3173 68.0448 71.808C67.7781 72.2987 67.6448 72.896 67.6448 73.6C67.6448 74.3147 67.7728 74.9173 68.0288 75.408C68.2954 75.8987 68.6474 76.2667 69.0848 76.512C69.5221 76.7467 70.0021 76.864 70.5248 76.864ZM78.3911 70.656C78.6471 70.1547 79.0098 69.7653 79.4791 69.488C79.9591 69.2107 80.5405 69.072 81.2231 69.072V70.576H80.8391C79.2071 70.576 78.3911 71.4613 78.3911 73.232V78H76.9351V69.232H78.3911V70.656Z" fill="#727F87"/>
<defs>
<clipPath id="clip0_1066_2304">
<rect width="48" height="48" fill="white" transform="translate(17)"/>
</clipPath>
</defs>
</svg>
