<svg width="120" height="100" viewBox="0 0 120 100" fill="none" xmlns="http://www.w3.org/2000/svg">
<rect width="120" height="100" rx="6" fill="#B338FF"/>
<g clip-path="url(#clip0_1066_2293)">
<path d="M80.9971 21.0617C80.9971 22.8742 80.9971 24.6867 80.9971 26.4992C80.1971 26.4992 79.3846 26.4992 78.5471 26.4992C78.5471 34.2242 78.5471 41.8742 78.5471 49.5867C77.4596 49.5867 76.4096 49.5867 75.3221 49.5867C75.3971 49.7492 75.4346 49.8492 75.4721 49.9492C76.6596 52.5117 75.8971 55.3867 73.5971 57.0117C72.8221 57.5617 71.9471 57.8117 71.0471 58.0117C70.6096 58.0117 70.1721 58.0117 69.7346 58.0117C69.6471 57.9867 69.5596 57.9367 69.4721 57.9242C67.8846 57.6367 66.6346 56.8242 65.7346 55.4867C65.5471 55.2117 65.3721 55.0992 65.0346 55.0992C57.5846 55.1117 50.1346 55.1117 42.6846 55.1117C42.5221 55.1117 42.3471 55.1117 42.1721 55.1117C42.1721 56.1117 42.1721 57.0617 42.1721 58.0117C41.2346 58.0117 40.2971 58.0117 39.3596 58.0117C39.3471 57.8242 39.3346 57.6367 39.3346 57.4492C39.3346 55.0117 39.3346 52.5742 39.3346 50.1367C39.3346 49.9617 39.3346 49.7742 39.3346 49.5617C37.9971 49.5617 36.7346 49.5617 35.4221 49.5617C35.4221 41.8617 35.4221 34.2117 35.4221 26.4992C34.5721 26.4992 33.7846 26.4992 32.9971 26.4992C32.9971 24.6867 32.9971 22.8742 32.9971 21.0617C33.0221 21.0242 33.0596 20.9867 33.0596 20.9492C33.3471 18.2367 35.8471 15.5492 39.5721 15.5742C49.5346 15.6492 59.5096 15.5992 69.4721 15.5992C69.6721 15.5992 69.8721 15.5992 70.0971 15.5992C70.0971 14.6492 70.0971 13.7617 70.0971 12.8117C68.9846 12.8117 67.9096 12.8117 66.7471 12.8117C66.7471 11.8492 66.7471 10.9242 66.7471 10.0117C69.9346 10.0117 73.1221 10.0117 76.3096 10.0117C76.3096 10.9367 76.3096 11.8742 76.3096 12.8492C75.1346 12.8492 74.0471 12.8492 72.9596 12.8492C72.9596 13.7742 72.9596 14.6617 72.9596 15.6117C73.6846 15.6117 74.3721 15.5867 75.0721 15.6117C77.7221 15.7117 79.9846 17.4992 80.7221 20.0367C80.8346 20.3742 80.9096 20.7242 80.9971 21.0617ZM38.2721 46.7242C50.7846 46.7242 63.2471 46.7242 75.7096 46.7242C75.7096 39.9742 75.7096 33.2492 75.7096 26.5367C63.2096 26.5367 50.7471 26.5367 38.2721 26.5367C38.2721 33.2617 38.2721 39.9742 38.2721 46.7242ZM78.1596 23.6742C78.1596 22.8742 78.2346 22.1242 78.1471 21.3867C77.9346 19.5742 76.5346 18.3992 74.6596 18.3992C62.8846 18.3992 51.1096 18.3992 39.3221 18.3992C39.2096 18.3992 39.0971 18.3992 38.9971 18.4117C37.7346 18.4992 36.8096 19.1117 36.2096 20.1992C35.6096 21.2992 35.8471 22.4992 35.8221 23.6742C49.9721 23.6742 64.0346 23.6742 78.1596 23.6742ZM65.4221 49.5867C57.7221 49.5867 49.9721 49.5867 42.1846 49.5867C42.1846 50.4867 42.1846 51.3617 42.1846 52.2617C49.7346 52.2617 57.2471 52.2617 64.6846 52.2617C64.9346 51.3492 65.1721 50.4867 65.4221 49.5867ZM73.2221 52.3867C73.2221 50.8367 71.9846 49.5742 70.4471 49.5617C68.8971 49.5492 67.6096 50.8367 67.6096 52.3867C67.6221 53.9242 68.8846 55.1867 70.4221 55.1867C71.9596 55.1867 73.2221 53.9367 73.2221 52.3867Z" fill="white"/>
<path d="M68.3475 42.4598C67.435 42.1598 66.5725 41.8723 65.685 41.5723C66.0725 40.3848 66.46 39.2348 66.8475 38.0348C65.5725 38.0348 64.36 38.0348 63.085 38.0348C63.885 35.6223 64.685 33.2348 65.485 30.8223C66.3725 31.1223 67.2475 31.4098 68.1475 31.7098C67.76 32.8848 67.385 34.0348 66.985 35.2223C68.235 35.2223 69.435 35.2223 70.735 35.2223C69.935 37.6598 69.1475 40.0348 68.3475 42.4598Z" fill="white"/>
<path d="M43.0576 31.1133C43.9951 31.1133 44.8826 31.1133 45.8201 31.1133C45.8201 34.7883 45.8201 38.4508 45.8201 42.1383C44.9076 42.1383 43.9951 42.1383 43.0576 42.1383C43.0576 38.4758 43.0576 34.8133 43.0576 31.1133Z" fill="white"/>
<path d="M48.4941 31.1133C49.4316 31.1133 50.3316 31.1133 51.2566 31.1133C51.2566 34.7883 51.2566 38.4508 51.2566 42.1383C50.3316 42.1383 49.4316 42.1383 48.4941 42.1383C48.4941 38.4758 48.4941 34.8133 48.4941 31.1133Z" fill="white"/>
<path d="M53.9336 31.1133C54.8711 31.1133 55.7711 31.1133 56.6961 31.1133C56.6961 34.7883 56.6961 38.4508 56.6961 42.1383C55.7836 42.1383 54.8711 42.1383 53.9336 42.1383C53.9336 38.4758 53.9336 34.8133 53.9336 31.1133Z" fill="white"/>
</g>
<path d="M26.0081 80.08C25.6988 79.4293 25.2508 78.928 24.6641 78.576C24.0775 78.2133 23.3948 78.032 22.6161 78.032C21.8375 78.032 21.1335 78.2133 20.5041 78.576C19.8855 78.928 19.3948 79.44 19.0321 80.112C18.6801 80.7733 18.5041 81.5413 18.5041 82.416C18.5041 83.2907 18.6801 84.0587 19.0321 84.72C19.3948 85.3813 19.8855 85.8933 20.5041 86.256C21.1335 86.608 21.8375 86.784 22.6161 86.784C23.7041 86.784 24.6001 86.4587 25.3041 85.808C26.0081 85.1573 26.4188 84.2773 26.5361 83.168H22.0881V81.984H28.0881V83.104C28.0028 84.0213 27.7148 84.864 27.2241 85.632C26.7335 86.3893 26.0881 86.992 25.2881 87.44C24.4881 87.8773 23.5975 88.096 22.6161 88.096C21.5815 88.096 20.6375 87.856 19.7841 87.376C18.9308 86.8853 18.2535 86.208 17.7521 85.344C17.2615 84.48 17.0161 83.504 17.0161 82.416C17.0161 81.328 17.2615 80.352 17.7521 79.488C18.2535 78.6133 18.9308 77.936 19.7841 77.456C20.6375 76.9653 21.5815 76.72 22.6161 76.72C23.8001 76.72 24.8455 77.0133 25.7521 77.6C26.6695 78.1867 27.3361 79.0133 27.7521 80.08H26.0081ZM38.0133 83.28C38.0133 83.5573 37.9973 83.8507 37.9653 84.16H30.9573C31.0106 85.024 31.3039 85.7013 31.8373 86.192C32.3813 86.672 33.0373 86.912 33.8053 86.912C34.4346 86.912 34.9573 86.768 35.3733 86.48C35.7999 86.1813 36.0986 85.7867 36.2693 85.296H37.8373C37.6026 86.1387 37.1333 86.8267 36.4293 87.36C35.7253 87.8827 34.8506 88.144 33.8053 88.144C32.9733 88.144 32.2266 87.9573 31.5653 87.584C30.9146 87.2107 30.4026 86.6827 30.0293 86C29.6559 85.3067 29.4693 84.5067 29.4693 83.6C29.4693 82.6933 29.6506 81.8987 30.0133 81.216C30.3759 80.5333 30.8826 80.0107 31.5333 79.648C32.1946 79.2747 32.9519 79.088 33.8053 79.088C34.6373 79.088 35.3733 79.2693 36.0133 79.632C36.6533 79.9947 37.1439 80.496 37.4853 81.136C37.8373 81.7653 38.0133 82.48 38.0133 83.28ZM36.5093 82.976C36.5093 82.4213 36.3866 81.9467 36.1413 81.552C35.8959 81.1467 35.5599 80.8427 35.1333 80.64C34.7173 80.4267 34.2533 80.32 33.7413 80.32C33.0053 80.32 32.3759 80.5547 31.8533 81.024C31.3413 81.4933 31.0479 82.144 30.9733 82.976H36.5093ZM44.2071 79.072C45.2738 79.072 46.1378 79.3973 46.7991 80.048C47.4605 80.688 47.7911 81.616 47.7911 82.832V88H46.3511V83.04C46.3511 82.1653 46.1325 81.4987 45.6951 81.04C45.2578 80.5707 44.6605 80.336 43.9031 80.336C43.1351 80.336 42.5218 80.576 42.0631 81.056C41.6151 81.536 41.3911 82.2347 41.3911 83.152V88H39.9351V79.232H41.3911V80.48C41.6791 80.032 42.0685 79.6853 42.5591 79.44C43.0605 79.1947 43.6098 79.072 44.2071 79.072ZM58.1695 83.28C58.1695 83.5573 58.1535 83.8507 58.1215 84.16H51.1135C51.1668 85.024 51.4602 85.7013 51.9935 86.192C52.5375 86.672 53.1935 86.912 53.9615 86.912C54.5908 86.912 55.1135 86.768 55.5295 86.48C55.9562 86.1813 56.2548 85.7867 56.4255 85.296H57.9935C57.7588 86.1387 57.2895 86.8267 56.5855 87.36C55.8815 87.8827 55.0068 88.144 53.9615 88.144C53.1295 88.144 52.3828 87.9573 51.7215 87.584C51.0708 87.2107 50.5588 86.6827 50.1855 86C49.8122 85.3067 49.6255 84.5067 49.6255 83.6C49.6255 82.6933 49.8068 81.8987 50.1695 81.216C50.5322 80.5333 51.0388 80.0107 51.6895 79.648C52.3508 79.2747 53.1082 79.088 53.9615 79.088C54.7935 79.088 55.5295 79.2693 56.1695 79.632C56.8095 79.9947 57.3002 80.496 57.6415 81.136C57.9935 81.7653 58.1695 82.48 58.1695 83.28ZM56.6655 82.976C56.6655 82.4213 56.5428 81.9467 56.2975 81.552C56.0522 81.1467 55.7162 80.8427 55.2895 80.64C54.8735 80.4267 54.4095 80.32 53.8975 80.32C53.1615 80.32 52.5322 80.5547 52.0095 81.024C51.4975 81.4933 51.2042 82.144 51.1295 82.976H56.6655ZM61.5474 80.656C61.8034 80.1547 62.166 79.7653 62.6354 79.488C63.1154 79.2107 63.6967 79.072 64.3794 79.072V80.576H63.9954C62.3634 80.576 61.5474 81.4613 61.5474 83.232V88H60.0914V79.232H61.5474V80.656ZM65.5161 83.584C65.5161 82.688 65.6975 81.904 66.0601 81.232C66.4228 80.5493 66.9188 80.0213 67.5481 79.648C68.1881 79.2747 68.8975 79.088 69.6761 79.088C70.4441 79.088 71.1108 79.2533 71.6761 79.584C72.2415 79.9147 72.6628 80.3307 72.9401 80.832V79.232H74.4121V88H72.9401V86.368C72.6521 86.88 72.2201 87.3067 71.6441 87.648C71.0788 87.9787 70.4175 88.144 69.6601 88.144C68.8815 88.144 68.1775 87.952 67.5481 87.568C66.9188 87.184 66.4228 86.6453 66.0601 85.952C65.6975 85.2587 65.5161 84.4693 65.5161 83.584ZM72.9401 83.6C72.9401 82.9387 72.8068 82.3627 72.5401 81.872C72.2735 81.3813 71.9108 81.008 71.4521 80.752C71.0041 80.4853 70.5081 80.352 69.9641 80.352C69.4201 80.352 68.9241 80.48 68.4761 80.736C68.0281 80.992 67.6708 81.3653 67.4041 81.856C67.1375 82.3467 67.0041 82.9227 67.0041 83.584C67.0041 84.256 67.1375 84.8427 67.4041 85.344C67.6708 85.8347 68.0281 86.2133 68.4761 86.48C68.9241 86.736 69.4201 86.864 69.9641 86.864C70.5081 86.864 71.0041 86.736 71.4521 86.48C71.9108 86.2133 72.2735 85.8347 72.5401 85.344C72.8068 84.8427 72.9401 84.2613 72.9401 83.6ZM78.6486 80.432V85.6C78.6486 86.0267 78.7393 86.3307 78.9206 86.512C79.102 86.6827 79.4166 86.768 79.8646 86.768H80.9366V88H79.6246C78.814 88 78.206 87.8133 77.8006 87.44C77.3953 87.0667 77.1926 86.4533 77.1926 85.6V80.432H76.0566V79.232H77.1926V77.024H78.6486V79.232H80.9366V80.432H78.6486ZM86.5248 88.144C85.7034 88.144 84.9568 87.9573 84.2848 87.584C83.6234 87.2107 83.1008 86.6827 82.7168 86C82.3434 85.3067 82.1568 84.5067 82.1568 83.6C82.1568 82.704 82.3488 81.9147 82.7328 81.232C83.1274 80.5387 83.6608 80.0107 84.3328 79.648C85.0048 79.2747 85.7568 79.088 86.5888 79.088C87.4208 79.088 88.1728 79.2747 88.8448 79.648C89.5168 80.0107 90.0448 80.5333 90.4288 81.216C90.8234 81.8987 91.0208 82.6933 91.0208 83.6C91.0208 84.5067 90.8181 85.3067 90.4128 86C90.0181 86.6827 89.4794 87.2107 88.7968 87.584C88.1141 87.9573 87.3568 88.144 86.5248 88.144ZM86.5248 86.864C87.0474 86.864 87.5381 86.7413 87.9968 86.496C88.4554 86.2507 88.8234 85.8827 89.1008 85.392C89.3888 84.9013 89.5328 84.304 89.5328 83.6C89.5328 82.896 89.3941 82.2987 89.1168 81.808C88.8394 81.3173 88.4768 80.9547 88.0288 80.72C87.5808 80.4747 87.0954 80.352 86.5728 80.352C86.0394 80.352 85.5488 80.4747 85.1008 80.72C84.6634 80.9547 84.3114 81.3173 84.0448 81.808C83.7781 82.2987 83.6448 82.896 83.6448 83.6C83.6448 84.3147 83.7728 84.9173 84.0288 85.408C84.2954 85.8987 84.6474 86.2667 85.0848 86.512C85.5221 86.7467 86.0021 86.864 86.5248 86.864ZM94.3911 80.656C94.6471 80.1547 95.0098 79.7653 95.4791 79.488C95.9591 79.2107 96.5405 79.072 97.2231 79.072V80.576H96.8391C95.2071 80.576 94.3911 81.4613 94.3911 83.232V88H92.9351V79.232H94.3911V80.656Z" fill="white"/>
<defs>
<clipPath id="clip0_1066_2293">
<rect width="48" height="48" fill="white" transform="translate(33 10)"/>
</clipPath>
</defs>
</svg>
