<svg width="109" height="83" viewBox="0 0 109 83" fill="none" xmlns="http://www.w3.org/2000/svg">
<path d="M5.04144 78.112C4.30544 78.112 3.6441 77.984 3.05744 77.728C2.48144 77.4613 2.0281 77.0987 1.69744 76.64C1.36677 76.1707 1.1961 75.632 1.18544 75.024H2.73744C2.79077 75.5467 3.0041 75.9893 3.37744 76.352C3.76144 76.704 4.3161 76.88 5.04144 76.88C5.73477 76.88 6.27877 76.7093 6.67344 76.368C7.07877 76.016 7.28144 75.568 7.28144 75.024C7.28144 74.5973 7.1641 74.2507 6.92944 73.984C6.69477 73.7173 6.40144 73.5147 6.04944 73.376C5.69744 73.2373 5.22277 73.088 4.62544 72.928C3.88944 72.736 3.29744 72.544 2.84944 72.352C2.4121 72.16 2.03344 71.8613 1.71344 71.456C1.4041 71.04 1.24944 70.4853 1.24944 69.792C1.24944 69.184 1.4041 68.6453 1.71344 68.176C2.02277 67.7067 2.45477 67.344 3.00944 67.088C3.57477 66.832 4.2201 66.704 4.94544 66.704C5.99077 66.704 6.8441 66.9653 7.50544 67.488C8.17744 68.0107 8.5561 68.704 8.64144 69.568H7.04144C6.9881 69.1413 6.7641 68.768 6.36944 68.448C5.97477 68.1173 5.4521 67.952 4.80144 67.952C4.19344 67.952 3.69744 68.112 3.31344 68.432C2.92944 68.7413 2.73744 69.1787 2.73744 69.744C2.73744 70.1493 2.84944 70.48 3.07344 70.736C3.3081 70.992 3.59077 71.1893 3.92144 71.328C4.26277 71.456 4.73744 71.6053 5.34544 71.776C6.08144 71.9787 6.67344 72.1813 7.12144 72.384C7.56944 72.576 7.95344 72.88 8.27344 73.296C8.59344 73.7013 8.75344 74.256 8.75344 74.96C8.75344 75.504 8.60944 76.016 8.32144 76.496C8.03344 76.976 7.60677 77.3653 7.04144 77.664C6.4761 77.9627 5.80944 78.112 5.04144 78.112ZM12.3521 70.848C12.6401 70.3467 13.0667 69.9307 13.6321 69.6C14.2081 69.2587 14.8747 69.088 15.6321 69.088C16.4107 69.088 17.1147 69.2747 17.7441 69.648C18.3841 70.0213 18.8854 70.5493 19.2481 71.232C19.6107 71.904 19.7921 72.688 19.7921 73.584C19.7921 74.4693 19.6107 75.2587 19.2481 75.952C18.8854 76.6453 18.3841 77.184 17.7441 77.568C17.1147 77.952 16.4107 78.144 15.6321 78.144C14.8854 78.144 14.2241 77.9787 13.6481 77.648C13.0827 77.3067 12.6507 76.8853 12.3521 76.384V82.16H10.8961V69.232H12.3521V70.848ZM18.3041 73.584C18.3041 72.9227 18.1707 72.3467 17.9041 71.856C17.6374 71.3653 17.2747 70.992 16.8161 70.736C16.3681 70.48 15.8721 70.352 15.3281 70.352C14.7947 70.352 14.2987 70.4853 13.8401 70.752C13.3921 71.008 13.0294 71.3867 12.7521 71.888C12.4854 72.3787 12.3521 72.9493 12.3521 73.6C12.3521 74.2613 12.4854 74.8427 12.7521 75.344C13.0294 75.8347 13.3921 76.2133 13.8401 76.48C14.2987 76.736 14.7947 76.864 15.3281 76.864C15.8721 76.864 16.3681 76.736 16.8161 76.48C17.2747 76.2133 17.6374 75.8347 17.9041 75.344C18.1707 74.8427 18.3041 74.256 18.3041 73.584ZM21.1646 73.584C21.1646 72.688 21.3459 71.904 21.7086 71.232C22.0712 70.5493 22.5672 70.0213 23.1966 69.648C23.8366 69.2747 24.5459 69.088 25.3246 69.088C26.0926 69.088 26.7592 69.2533 27.3246 69.584C27.8899 69.9147 28.3112 70.3307 28.5886 70.832V69.232H30.0606V78H28.5886V76.368C28.3006 76.88 27.8686 77.3067 27.2926 77.648C26.7272 77.9787 26.0659 78.144 25.3086 78.144C24.5299 78.144 23.8259 77.952 23.1966 77.568C22.5672 77.184 22.0712 76.6453 21.7086 75.952C21.3459 75.2587 21.1646 74.4693 21.1646 73.584ZM28.5886 73.6C28.5886 72.9387 28.4552 72.3627 28.1886 71.872C27.9219 71.3813 27.5592 71.008 27.1006 70.752C26.6526 70.4853 26.1566 70.352 25.6126 70.352C25.0686 70.352 24.5726 70.48 24.1246 70.736C23.6766 70.992 23.3192 71.3653 23.0526 71.856C22.7859 72.3467 22.6526 72.9227 22.6526 73.584C22.6526 74.256 22.7859 74.8427 23.0526 75.344C23.3192 75.8347 23.6766 76.2133 24.1246 76.48C24.5726 76.736 25.0686 76.864 25.6126 76.864C26.1566 76.864 26.6526 76.736 27.1006 76.48C27.5592 76.2133 27.9219 75.8347 28.1886 75.344C28.4552 74.8427 28.5886 74.2613 28.5886 73.6ZM31.9771 73.6C31.9771 72.6933 32.1584 71.904 32.5211 71.232C32.8837 70.5493 33.3851 70.0213 34.0251 69.648C34.6757 69.2747 35.4171 69.088 36.2491 69.088C37.3264 69.088 38.2117 69.3493 38.9051 69.872C39.6091 70.3947 40.0731 71.12 40.2971 72.048H38.7291C38.5797 71.5147 38.2864 71.0933 37.8491 70.784C37.4224 70.4747 36.8891 70.32 36.2491 70.32C35.4171 70.32 34.7451 70.608 34.2331 71.184C33.7211 71.7493 33.4651 72.5547 33.4651 73.6C33.4651 74.656 33.7211 75.472 34.2331 76.048C34.7451 76.624 35.4171 76.912 36.2491 76.912C36.8891 76.912 37.4224 76.7627 37.8491 76.464C38.2757 76.1653 38.5691 75.7387 38.7291 75.184H40.2971C40.0624 76.08 39.5931 76.8 38.8891 77.344C38.1851 77.8773 37.3051 78.144 36.2491 78.144C35.4171 78.144 34.6757 77.9573 34.0251 77.584C33.3851 77.2107 32.8837 76.6827 32.5211 76C32.1584 75.3173 31.9771 74.5173 31.9771 73.6ZM50.2398 73.28C50.2398 73.5573 50.2238 73.8507 50.1918 74.16H43.1838C43.2371 75.024 43.5305 75.7013 44.0638 76.192C44.6078 76.672 45.2638 76.912 46.0318 76.912C46.6611 76.912 47.1838 76.768 47.5998 76.48C48.0265 76.1813 48.3251 75.7867 48.4958 75.296H50.0638C49.8291 76.1387 49.3598 76.8267 48.6558 77.36C47.9518 77.8827 47.0771 78.144 46.0318 78.144C45.1998 78.144 44.4531 77.9573 43.7918 77.584C43.1411 77.2107 42.6291 76.6827 42.2558 76C41.8825 75.3067 41.6958 74.5067 41.6958 73.6C41.6958 72.6933 41.8771 71.8987 42.2398 71.216C42.6025 70.5333 43.1091 70.0107 43.7598 69.648C44.4211 69.2747 45.1785 69.088 46.0318 69.088C46.8638 69.088 47.5998 69.2693 48.2398 69.632C48.8798 69.9947 49.3705 70.496 49.7118 71.136C50.0638 71.7653 50.2398 72.48 50.2398 73.28ZM48.7358 72.976C48.7358 72.4213 48.6131 71.9467 48.3678 71.552C48.1225 71.1467 47.7865 70.8427 47.3598 70.64C46.9438 70.4267 46.4798 70.32 45.9678 70.32C45.2318 70.32 44.6025 70.5547 44.0798 71.024C43.5678 71.4933 43.2745 72.144 43.1998 72.976H48.7358ZM65.0193 66.848V78H63.5633V72.944H57.8833V78H56.4273V66.848H57.8833V71.744H63.5633V66.848H65.0193ZM75.5054 73.28C75.5054 73.5573 75.4894 73.8507 75.4574 74.16H68.4494C68.5028 75.024 68.7961 75.7013 69.3294 76.192C69.8734 76.672 70.5294 76.912 71.2974 76.912C71.9268 76.912 72.4494 76.768 72.8654 76.48C73.2921 76.1813 73.5908 75.7867 73.7614 75.296H75.3294C75.0948 76.1387 74.6254 76.8267 73.9214 77.36C73.2174 77.8827 72.3428 78.144 71.2974 78.144C70.4654 78.144 69.7188 77.9573 69.0574 77.584C68.4068 77.2107 67.8948 76.6827 67.5214 76C67.1481 75.3067 66.9614 74.5067 66.9614 73.6C66.9614 72.6933 67.1428 71.8987 67.5054 71.216C67.8681 70.5333 68.3748 70.0107 69.0254 69.648C69.6868 69.2747 70.4441 69.088 71.2974 69.088C72.1294 69.088 72.8654 69.2693 73.5054 69.632C74.1454 69.9947 74.6361 70.496 74.9774 71.136C75.3294 71.7653 75.5054 72.48 75.5054 73.28ZM74.0014 72.976C74.0014 72.4213 73.8788 71.9467 73.6334 71.552C73.3881 71.1467 73.0521 70.8427 72.6254 70.64C72.2094 70.4267 71.7454 70.32 71.2334 70.32C70.4974 70.32 69.8681 70.5547 69.3454 71.024C68.8334 71.4933 68.5401 72.144 68.4654 72.976H74.0014ZM76.8833 73.584C76.8833 72.688 77.0646 71.904 77.4273 71.232C77.79 70.5493 78.286 70.0213 78.9153 69.648C79.5553 69.2747 80.2646 69.088 81.0433 69.088C81.8113 69.088 82.478 69.2533 83.0433 69.584C83.6086 69.9147 84.03 70.3307 84.3073 70.832V69.232H85.7793V78H84.3073V76.368C84.0193 76.88 83.5873 77.3067 83.0113 77.648C82.446 77.9787 81.7846 78.144 81.0273 78.144C80.2486 78.144 79.5446 77.952 78.9153 77.568C78.286 77.184 77.79 76.6453 77.4273 75.952C77.0646 75.2587 76.8833 74.4693 76.8833 73.584ZM84.3073 73.6C84.3073 72.9387 84.174 72.3627 83.9073 71.872C83.6406 71.3813 83.278 71.008 82.8193 70.752C82.3713 70.4853 81.8753 70.352 81.3313 70.352C80.7873 70.352 80.2913 70.48 79.8433 70.736C79.3953 70.992 79.038 71.3653 78.7713 71.856C78.5046 72.3467 78.3713 72.9227 78.3713 73.584C78.3713 74.256 78.5046 74.8427 78.7713 75.344C79.038 75.8347 79.3953 76.2133 79.8433 76.48C80.2913 76.736 80.7873 76.864 81.3313 76.864C81.8753 76.864 82.3713 76.736 82.8193 76.48C83.278 76.2133 83.6406 75.8347 83.9073 75.344C84.174 74.8427 84.3073 74.2613 84.3073 73.6ZM90.0158 70.432V75.6C90.0158 76.0267 90.1065 76.3307 90.2878 76.512C90.4691 76.6827 90.7838 76.768 91.2318 76.768H92.3038V78H90.9918C90.1811 78 89.5731 77.8133 89.1678 77.44C88.7625 77.0667 88.5598 76.4533 88.5598 75.6V70.432H87.4238V69.232H88.5598V67.024H90.0158V69.232H92.3038V70.432H90.0158ZM102.068 73.28C102.068 73.5573 102.052 73.8507 102.02 74.16H95.0119C95.0653 75.024 95.3586 75.7013 95.8919 76.192C96.4359 76.672 97.0919 76.912 97.8599 76.912C98.4893 76.912 99.0119 76.768 99.4279 76.48C99.8546 76.1813 100.153 75.7867 100.324 75.296H101.892C101.657 76.1387 101.188 76.8267 100.484 77.36C99.7799 77.8827 98.9053 78.144 97.8599 78.144C97.0279 78.144 96.2813 77.9573 95.6199 77.584C94.9693 77.2107 94.4573 76.6827 94.0839 76C93.7106 75.3067 93.5239 74.5067 93.5239 73.6C93.5239 72.6933 93.7053 71.8987 94.0679 71.216C94.4306 70.5333 94.9373 70.0107 95.5879 69.648C96.2493 69.2747 97.0066 69.088 97.8599 69.088C98.6919 69.088 99.4279 69.2693 100.068 69.632C100.708 69.9947 101.199 70.496 101.54 71.136C101.892 71.7653 102.068 72.48 102.068 73.28ZM100.564 72.976C100.564 72.4213 100.441 71.9467 100.196 71.552C99.9506 71.1467 99.6146 70.8427 99.1879 70.64C98.7719 70.4267 98.3079 70.32 97.7959 70.32C97.0599 70.32 96.4306 70.5547 95.9079 71.024C95.3959 71.4933 95.1026 72.144 95.0279 72.976H100.564ZM105.446 70.656C105.702 70.1547 106.064 69.7653 106.534 69.488C107.014 69.2107 107.595 69.072 108.278 69.072V70.576H107.894C106.262 70.576 105.446 71.4613 105.446 73.232V78H103.99V69.232H105.446V70.656Z" fill="#727F87"/>
<path d="M70.6894 47.9993C69.4396 47.9993 68.189 47.9993 66.9392 47.9993C66.9392 46.6952 66.9392 45.3911 66.9392 44.0916C58.3419 44.0916 49.8122 44.0916 41.2505 44.0916C41.2505 45.4136 41.2505 46.7064 41.2505 47.9993C40.0008 47.9993 38.7501 47.9993 37.5003 47.9993C37.5003 46.6971 37.5003 45.3948 37.5003 44.0607C36.5066 44.0607 35.5737 44.0729 34.6418 44.0579C32.4039 44.0222 30.5503 42.4772 30.09 40.2843C30.0722 40.1971 30.0309 40.1146 30 40.0302C30 32.2486 30 24.467 30 16.6854C30.0197 16.6619 30.0497 16.6413 30.0572 16.6141C30.7294 13.9402 32.3739 12.6539 35.1246 12.6539C43.6806 12.6539 52.2376 12.6539 60.7936 12.6539C64.9469 12.6539 69.1003 12.638 73.2536 12.6605C75.2712 12.6717 76.7253 13.6402 77.5963 15.4553C77.7819 15.8416 77.87 16.2738 78.0032 16.6854C78.0032 24.467 78.0032 32.2486 78.0032 40.0302C77.9704 40.1296 77.9291 40.228 77.9057 40.3302C77.5747 41.7431 76.7862 42.8128 75.5102 43.5094C74.7846 43.906 73.9999 44.0701 73.1739 44.0635C72.3526 44.056 71.5332 44.0616 70.6894 44.0616C70.6894 45.4164 70.6894 46.7083 70.6894 47.9993ZM53.9542 40.3114C60.2808 40.3114 66.6064 40.3114 72.9329 40.3114C73.9689 40.3114 74.2521 40.0339 74.2521 39.0186C74.2521 31.9111 74.2521 24.8045 74.2521 17.697C74.2521 16.6957 73.9661 16.405 72.9798 16.405C60.3277 16.405 47.6746 16.405 35.0224 16.405C34.0361 16.4041 33.7502 16.6947 33.7502 17.696C33.7502 24.8035 33.7502 31.9101 33.7502 39.0176C33.7502 40.033 34.0343 40.3114 35.0693 40.3114C41.364 40.3114 47.6586 40.3114 53.9542 40.3114Z" fill="#B338FF"/>
<path d="M43.8736 0C43.9777 0.108755 44.0752 0.22501 44.1867 0.325328C45.4759 1.48319 45.909 3.40047 45.0352 4.89023C43.957 6.72875 42.7335 8.48289 41.5757 10.2699C40.4009 9.66326 39.619 8.00475 39.8881 6.60874C39.9922 6.06966 40.1844 5.51276 40.4741 5.05055C41.5457 3.34703 42.6735 1.68008 43.7798 0C43.8108 0 43.8427 0 43.8736 0Z" fill="#B338FF"/>
<path d="M55.1255 0C55.2296 0.108755 55.3271 0.22501 55.4387 0.325328C56.7278 1.48319 57.161 3.40047 56.2872 4.89023C55.209 6.72875 53.9855 8.48289 52.8276 10.2699C51.6529 9.66326 50.871 8.00475 51.1401 6.60874C51.2441 6.06966 51.4363 5.51276 51.726 5.05055C52.7976 3.34703 53.9255 1.68008 55.0318 0C55.0627 0 55.0946 0 55.1255 0Z" fill="#B338FF"/>
<path d="M66.3756 0C66.4796 0.108755 66.5771 0.22501 66.6887 0.325328C67.9778 1.48319 68.411 3.40047 67.5372 4.89023C66.459 6.72875 65.2355 8.48289 64.0776 10.2699C62.9029 9.66326 62.121 8.00475 62.3901 6.60874C62.4941 6.06966 62.6863 5.51276 62.976 5.05055C64.0476 3.34703 65.1755 1.68008 66.2818 0C66.3127 0 66.3446 0 66.3756 0Z" fill="#B338FF"/>
<path d="M37.5332 20.1758C38.7736 20.1758 39.9736 20.1758 41.2112 20.1758C41.2112 25.6295 41.2112 31.07 41.2112 36.5369C39.9943 36.5369 38.782 36.5369 37.5332 36.5369C37.5332 31.101 37.5332 25.6604 37.5332 20.1758Z" fill="#B338FF"/>
<path d="M44.8359 36.5401C44.8359 31.0733 44.8359 25.6431 44.8359 20.1875C46.0716 20.1875 47.2829 20.1875 48.5289 20.1875C48.5289 25.6346 48.5289 31.0761 48.5289 36.5401C47.3036 36.5401 46.0904 36.5401 44.8359 36.5401Z" fill="#B338FF"/>
<path d="M55.8416 36.5429C54.6031 36.5429 53.3909 36.5429 52.1533 36.5429C52.1533 31.0864 52.1533 25.6496 52.1533 20.1875C53.3843 20.1875 54.5947 20.1875 55.8416 20.1875C55.8416 25.6262 55.8416 31.0639 55.8416 36.5429Z" fill="#B338FF"/>
<path d="M59.5654 20.1777C60.8105 20.1777 62.0105 20.1777 63.2462 20.1777C63.2462 25.6333 63.2462 31.0739 63.2462 36.5397C62.0246 36.5397 60.8124 36.5397 59.5654 36.5397C59.5654 31.0982 59.5654 25.6567 59.5654 20.1777Z" fill="#B338FF"/>
<path d="M66.9727 20.1777C68.2177 20.1777 69.4178 20.1777 70.6535 20.1777C70.6535 25.6333 70.6535 31.0739 70.6535 36.5397C69.4318 36.5397 68.2196 36.5397 66.9727 36.5397C66.9727 31.0982 66.9727 25.6567 66.9727 20.1777Z" fill="#B338FF"/>
</svg>
