<svg width="72" height="43" viewBox="0 0 72 43" fill="none" xmlns="http://www.w3.org/2000/svg">
<path d="M38.8094 0.634365C48.177 0.582436 57.5468 0.600498 66.9189 0.688552C70.5156 0.688552 71.3927 4.71871 71.4977 7.61771C71.6941 11.553 71.7856 15.485 71.6027 19.4237C71.4909 25.4012 71.3148 31.3787 71.1353 37.3731C71.1861 42.0129 66.8241 42.5853 63.1664 42.3177C51.9328 42.2838 40.6958 42.2567 29.4689 42.5886C22.8818 42.5886 16.2202 42.8901 9.71437 41.6844C7.80766 41.3254 6.80859 40.1739 6.58168 38.2605C6.20237 35.077 6.31074 31.8833 6.348 28.6897C6.1685 27.5382 6.97792 25.4249 5.81967 24.7679C-1.76989 20.6802 -0.364421 21.0866 6.11093 16.7211C6.18405 16.6605 6.24422 16.5858 6.28786 16.5014C6.33149 16.4171 6.3577 16.3248 6.36493 16.2301C6.45975 14.6519 6.55119 13.0703 6.59522 11.4887C6.93389 7.14358 5.24055 1.43024 11.2892 0.803699C20.4535 0.525991 29.6349 0.685165 38.8094 0.634365ZM25.1678 1.86373C21.246 1.79939 17.3175 1.81971 13.3923 1.88744C10.9945 1.77568 8.26147 2.67315 7.9228 5.54845C7.53334 9.17559 7.94312 12.8163 7.79072 16.4536C7.74669 18.1469 4.11617 19.5626 2.83261 20.7411C1.29844 21.6759 8.1023 23.061 7.55705 25.0693C7.58075 41.9418 6.05336 41.1696 23.2713 41.0985C33.3975 41.1595 43.9301 40.9596 52.5864 40.9427C55.9901 41.0917 59.4038 40.9834 62.8142 40.8919C65.1036 40.6108 68.6258 41.3254 69.3675 38.4366C70.1193 29.1435 70.5596 19.7691 70.1972 10.4321C69.6892 3.99735 70.4851 1.82309 63.031 1.85696C51.0252 1.88405 37.0856 2.37174 25.1678 1.86373Z" fill="black"/>
</svg>
