<svg width="89" height="69" viewBox="0 0 89 69" fill="none" xmlns="http://www.w3.org/2000/svg">
<path d="M68.7702 25.3887C68.5874 28.3927 68.5501 31.3357 68.4621 34.3329C68.5128 35.4031 70.87 34.7054 71.483 34.4345C74.9746 33.1239 77.64 30.5635 80.2884 28.0574C80.9996 27.4037 81.9817 27.6408 82.8284 27.4342C83.8444 27.1768 84.8604 26.8415 85.9373 27.0041C87.2311 27.2073 85.2973 28.4638 86.8958 28.4773C87.1362 28.5146 87.3801 28.5349 87.6205 28.5755C88.518 28.7212 88.1929 29.639 87.6205 30.025C86.9432 30.533 88.1184 32.2365 88.0777 33.0731C88.255 34.0718 88.0543 35.1007 87.5146 35.9596C86.975 36.8185 86.1351 37.4459 85.1584 37.7196C83.8037 38.0379 83.9765 39.3046 83.78 40.3612C83.4075 46.0542 80.3324 51.246 77.132 55.8417C73.5963 60.5831 67.2428 62.4661 61.5532 62.8183C59.7955 62.8183 58.0378 62.7066 56.2869 62.5982C55.1422 62.5271 55.0914 62.5609 55.0474 63.6887C54.8916 64.7995 55.9584 65.3109 56.4427 66.161C58.136 69.5477 48.6533 67.2413 47.2343 66.8383C44.8636 66.1305 46.0388 62.5575 45.8796 60.6441C45.9154 60.4665 45.881 60.2821 45.7838 60.1293C45.6866 59.9765 45.534 59.8673 45.3581 59.8245C42.4319 58.6112 39.6948 56.9849 37.23 54.9951C37.0031 54.8142 36.7242 54.7109 36.4342 54.7004C35.364 54.7512 34.2904 54.7986 33.227 54.9409C32.8578 57.8196 32.851 60.6983 32.6851 63.6006C32.6718 63.7686 32.6976 63.9373 32.7605 64.0936C32.8234 64.2499 32.9216 64.3895 33.0475 64.5015C33.8908 65.2906 36.4037 67.4344 34.2226 68.0237C31.1262 68.228 28.0176 67.9015 25.0312 67.0585C22.3862 66.4285 23.6494 62.4424 23.436 60.4138C23.4868 58.1989 23.5647 55.984 23.6393 53.7725C23.6663 52.936 23.2464 52.472 22.5352 52.0791C20.5709 50.9886 18.6473 49.8236 16.7067 48.6925C15.6196 48.0896 14.9795 47.5545 13.6926 48.0558C12.3853 48.347 10.9256 48.7331 9.6861 48.0016C8.68545 47.465 7.82115 46.7061 7.15963 45.7833C6.73291 44.4083 4.2674 46.2168 1.24986 43.3517C0.964788 43.0888 0.734536 42.7721 0.57237 42.4199C0.410204 42.0677 0.319328 41.6868 0.304977 41.2993C0.0746823 35.7519 6.36376 33.283 10.6953 31.6202C10.8237 31.5928 10.9388 31.5219 11.0209 31.4194C11.1029 31.317 11.1471 31.1893 11.1458 31.058C11.3219 28.711 11.5285 26.3674 11.7046 24.0204C11.6538 23.4041 11.9213 22.5405 11.3896 22.0968C6.77355 19.3874 4.61623 19.0996 10.2957 15.2726C13.7603 12.9324 17.1267 10.4364 20.7064 8.30621C21.3532 7.5713 20.7267 6.12518 21.6885 5.55961C27.2461 2.60642 25.5832 5.14305 28.0047 4.15075C29.549 3.17877 31.1374 2.27452 32.6851 1.30254C34.2328 0.330564 36.0718 0.913073 37.694 1.41092C42.1577 2.80284 46.4655 4.61134 50.8039 6.34532C52.6191 7.03959 53.9264 8.58731 55.5994 9.56267C57.9599 11.2391 60.3001 12.8986 62.6607 14.5513C66.2167 16.9558 69.7117 19.4416 73.0713 22.1103C73.9688 22.8046 74.3718 23.7156 74.0873 24.8637C73.8774 26.3674 69.9319 25.2159 68.7702 25.3887ZM12.8256 31.0614C16.1818 30.086 17.8006 31.9521 17.7904 35.2338C17.8582 37.7738 16.5238 38.8033 14.2717 39.6365C17.0386 41.1368 18.7455 44.1983 16.3037 46.779C19.5888 48.7737 22.9179 50.6432 26.2639 52.5363C29.0884 53.6743 32.36 53.4643 35.3436 53.2746C32.7985 50.7517 30.4407 48.0464 28.2892 45.1805C27.9505 47.3683 28.1435 49.6272 27.5678 51.7608H27.3985C27.0158 51.2189 27.0293 50.5653 27.0293 49.9252C27.0463 47.9237 27.0869 45.9221 27.0937 43.924C26.8769 42.6641 25.8508 41.6651 25.2649 40.5373C24.5198 39.4129 23.3412 38.6712 22.6944 37.4351C21.8951 36.182 21.4548 34.2889 22.542 33.0968C22.8118 32.8478 23.1357 32.665 23.4883 32.5626C23.8408 32.4602 24.2123 32.4411 24.5735 32.5068C24.9347 32.5725 25.2757 32.7211 25.5696 32.941C25.8635 33.161 26.1024 33.4461 26.2673 33.7741C26.5648 34.5338 26.8236 35.3081 27.0429 36.094C27.4628 33.8588 26.8193 31.3865 27.5543 29.2359C28.953 27.6747 27.8692 37.8991 28.025 38.6882C29.1629 41.6922 38.5847 53.7318 41.8427 52.9665C45.1379 52.7599 48.423 52.3941 51.7284 52.323C56.253 52.1333 60.7709 51.6219 65.3057 51.5881C66.3386 51.5508 66.5689 51.3375 66.5994 50.3181C66.649 46.8411 66.8127 43.3697 67.0904 39.904C67.253 34.3464 67.3038 28.7855 67.5544 23.228C67.5716 23.0714 67.5461 22.9132 67.4805 22.7701C67.4149 22.6269 67.3117 22.5043 67.1819 22.4151C65.055 20.925 62.9384 19.4213 60.8115 17.9278C57.689 15.7355 54.5653 13.5454 51.4406 11.3576C51.3851 11.3003 51.3182 11.2553 51.2443 11.2254C51.1703 11.1954 51.091 11.1813 51.0112 11.1839C50.9315 11.1864 50.8532 11.2056 50.7813 11.2402C50.7095 11.2748 50.6456 11.324 50.5939 11.3847C47.6373 14.2261 43.9086 16.0753 40.6303 18.4968C37.9514 20.4238 35.3335 22.4389 32.6411 24.3456C29.4576 26.2861 25.9219 29.9438 22.0204 27.5663C19.3111 26.0728 16.4866 24.7181 13.7095 23.316C13.1371 22.9604 13.066 23.4616 13.0525 23.9425C12.9475 26.3302 12.7748 28.6704 12.8256 31.0614ZM28.8141 5.01774C29.698 5.56299 30.6869 5.82038 30.5278 7.01927C30.3855 9.01516 30.2557 11.0122 30.1383 13.0103C30.1174 13.4381 29.9928 13.8543 29.775 14.2231C29.5573 14.5919 29.2531 14.9021 28.8886 15.127C27.1953 16.2277 25.3157 17.9854 23.2769 16.6104C22.3997 15.9364 20.7064 15.7197 20.7064 14.3718C20.7064 13.0239 20.7978 11.7505 20.8757 10.4466C20.8757 9.88441 20.7572 9.83022 20.2932 10.1282C17.3434 11.9909 14.4783 13.9891 11.5556 15.8856C10.522 16.5545 9.55163 17.3162 8.65655 18.1615C7.64054 19.0589 9.87237 19.6177 10.4075 20.0716C14.8102 22.3102 19.2637 24.5081 23.6359 26.8449C24.7332 27.4274 25.8033 27.4715 26.8227 26.784C30.8461 24.0972 34.7679 21.2863 38.5881 18.3511C41.46 16.2717 44.3455 14.2363 47.2478 12.1772C48.6465 11.1815 50.0385 10.1723 51.4406 9.17998C52.1179 8.58392 50.8614 7.79821 50.3602 7.56453C45.4597 5.54945 40.5693 3.46664 35.5265 1.82409C34.0296 1.26868 30.4059 4.21848 28.8141 5.01774ZM68.1979 42.9757C67.9879 45.6309 67.9405 48.3436 67.805 51.0157C67.805 52.4212 66.5147 52.7091 65.3632 52.8242C65.248 52.8294 65.1379 52.8728 65.0502 52.9477C64.9624 53.0225 64.9022 53.1244 64.8789 53.2374C64.3945 54.98 63.7658 56.6792 62.9993 58.3174C62.1696 59.6721 65.6172 58.3784 66.1896 58.4461C67.8753 58.1772 69.4886 57.5676 70.9309 56.6546C75.9094 52.9902 78.8219 47.138 80.2308 41.2451C80.3121 40.9065 80.4103 40.622 80.7896 40.517C81.1926 39.9446 81.1452 39.0506 81.3484 38.3664C81.4602 37.7568 81.4466 37.767 80.8878 37.5401C80.7874 37.4855 80.6701 37.4705 80.5591 37.4981C80.4482 37.5256 80.3515 37.5938 80.2884 37.6891C78.8998 38.9591 77.2403 39.9582 75.6825 40.9911C73.4202 42.4305 70.8293 42.5185 68.1979 42.9757ZM8.88684 46.1931L8.83943 46.2947C9.405 46.7824 10.2449 46.972 10.929 47.2734C11.7452 47.5715 12.5241 47.2328 13.32 47.1007C15.3012 46.8772 17.1063 44.1509 15.6907 42.4779C14.292 40.5509 11.735 40.2935 10.0383 38.8067C9.46258 37.8483 11.0069 38.2174 11.4404 38.468C12.514 39.0133 13.6824 38.5425 14.7357 38.1937C17.1978 37.662 17.6719 32.2806 14.756 32.2162C10.3228 32.5549 5.62885 34.1195 2.77726 37.7501C-1.52383 43.9883 6.62115 44.8113 10.9358 43.25C12.7138 42.5727 11.7723 45.1297 10.6615 45.3498C10.4447 45.4277 10.2415 45.5394 9.98413 45.6614C10.2179 45.8362 10.4206 46.0491 10.5836 46.2913C10.0519 46.5521 9.43887 46.2744 8.88684 46.1931ZM59.4873 61.8565C72.7936 61.7515 78.7914 54.9002 82.5168 42.7996C82.8047 41.8446 82.5845 41.6041 81.5787 41.6651C80.8133 41.6651 80.9555 42.6201 80.7591 43.1417C79.0929 49.2919 75.7062 55.7063 69.7321 58.5545C68.6551 59.0218 60.6557 61.5246 61.4753 58.8932C62.3299 57.2644 62.9979 55.5443 63.4667 53.7657C63.8426 52.8615 62.7893 52.6142 62.4507 53.427C61.2924 56.2312 60.5338 60.3257 56.7373 60.3291C46.2149 60.1733 37.0336 52.9529 30.8631 44.94C29.4203 43.0672 28.1165 41.0893 26.755 39.1555C26.5315 38.8372 26.291 38.7491 26.0065 38.9151C24.3911 39.1318 31.5167 47.4699 32.1432 48.3267C38.6321 56.6444 48.9005 61.8667 59.4873 61.8565ZM33.1728 66.6859L33.2574 66.503C32.6241 65.6801 31.3778 65.1009 31.344 63.9698C31.3101 62.8386 31.3744 61.7007 31.449 60.5831C31.5709 58.7645 31.7334 56.9458 31.8892 55.1272C31.9095 54.8799 31.8181 54.7885 31.5844 54.7648C29.6337 54.5446 27.5712 54.9849 25.7796 54.0028C24.6078 53.295 24.8551 60.6915 24.6891 61.5788C24.7975 62.3577 24.4521 65.7715 25.3665 65.758C27.9365 66.2946 30.5486 66.6051 33.1728 66.6859ZM68.479 36.2057C68.4553 37.7094 68.3469 39.711 68.313 41.3772C68.3266 41.434 68.3547 41.4862 68.3944 41.529C68.4342 41.5717 68.4843 41.6034 68.5399 41.6211C71.0623 41.7285 73.5534 41.0298 75.652 39.6263C76.8238 38.8237 77.9448 37.9329 79.0725 37.0863C79.6821 36.6223 79.6517 36.5952 79.2961 35.9246C77.6434 33.1747 79.7126 30.2689 82.1883 28.9616C80.9488 28.3757 79.8176 29.8557 79.0692 30.6956C76.4682 33.8791 72.6717 36.199 68.479 36.1922V36.2057ZM26.1996 15.1744L26.3655 15.2421C27.0971 14.9035 27.7405 14.3989 28.4416 14.0026C28.5758 13.9381 28.6906 13.8393 28.7745 13.7162C28.8583 13.5931 28.9082 13.4501 28.9191 13.3016C29.0715 11.6726 29.2273 10.047 29.3763 8.41459C29.3763 8.05221 29.4136 7.29021 28.831 7.58146C27.517 8.1064 26.0811 8.77357 24.7061 8.06237C24.0626 7.7745 23.4293 7.47309 22.7892 7.17506C22.2405 6.92106 22.1119 6.96508 22.0746 7.58146C21.9324 9.71169 21.7359 11.8419 21.7359 13.9789C21.8477 14.7816 23.602 15.1981 24.2353 15.74C24.9702 16.1633 25.1294 16.0787 25.1666 15.2184C25.2445 13.3388 25.3326 11.4626 25.4206 9.58638C25.4206 9.24771 25.485 8.77019 25.8846 8.72616C26.8329 8.78373 25.9964 14.111 26.1996 15.1744ZM72.3838 24.3185C72.5058 24.2473 72.8343 24.1593 72.8614 24.0171C72.8539 23.8301 72.799 23.648 72.7018 23.4881C72.6047 23.3281 72.4684 23.1955 72.3059 23.1026C69.6677 21.1858 67.0532 19.235 64.4556 17.2742C60.7731 14.7229 57.0817 12.1885 53.3811 9.67105C52.7309 9.21723 52.6395 9.45091 52.2364 9.94198C52.196 9.98411 52.1662 10.0353 52.1496 10.0913C52.133 10.1473 52.1301 10.2064 52.141 10.2638C52.152 10.3211 52.1765 10.3751 52.2125 10.421C52.2486 10.4669 52.2951 10.5036 52.3482 10.5279C56.3411 13.4066 60.4762 16.0583 64.4929 18.9201C65.8475 20.2341 69.2986 21.2637 68.8955 23.4481C68.6822 24.183 71.6557 24.078 72.3838 24.3219V24.3185ZM55.2099 66.6148L55.2709 66.4793C54.7324 65.636 53.6961 65.0806 53.7672 63.9732C53.6555 63.455 54.0517 62.5542 53.4285 62.3171C51.5151 61.826 49.6084 61.318 47.6915 60.8371C46.794 60.8574 47.3528 63.5465 47.258 64.2475C47.3223 65.6767 47.5967 65.9646 49.0225 66.1407C51.0782 66.4421 53.1271 66.7367 55.2099 66.6148ZM47.5052 53.935C47.6272 54.7411 47.1937 56.9831 47.8168 57.2337C49.7914 58.0418 51.8306 58.6819 53.9128 59.1472V53.5523L47.5052 53.935ZM55.4978 53.3356C55.3996 55.2254 55.2743 57.0169 55.2472 58.883C55.2472 59.0049 55.3522 59.2217 55.447 59.2217C58.9251 60.3054 60.3205 56.2617 61.0994 53.6777C61.1942 53.1697 61.1197 53.0342 60.6117 53.0511C58.9082 53.1459 57.1945 53.1527 55.4978 53.3356ZM83.4989 36.9237L83.5159 36.8424C89.4087 37.1066 87.5359 28.1082 82.2052 30.0691C78.5781 32.0164 79.1437 36.6968 83.4989 36.9237ZM26.142 37.4554C25.932 36.3006 25.6577 32.5752 23.707 33.6928C21.9527 35.1525 23.8695 37.0321 24.8449 38.3326C25.292 38.9456 26.0777 38.0345 26.142 37.4554ZM23.1482 6.03713V6.20647C25.3969 7.39519 26.2605 7.61533 28.5432 6.37241C28.5432 6.37241 28.5432 6.325 28.5432 6.24711C26.7347 5.43091 24.9939 4.88904 23.1482 6.03713ZM45.8762 54.4295C44.9347 54.5209 43.9052 54.2263 43.0788 54.5751C43.8307 55.3608 44.9314 55.6623 45.8762 56.2685V54.4295ZM83.2483 38.6916C83.2246 38.3326 83.2483 38.0752 82.9097 38.0142C82.4931 37.9296 82.2323 38.0142 82.1375 38.3901C82.1375 38.9185 81.389 40.5204 82.1375 40.6321C83.1332 40.964 83.0011 39.2165 83.2483 38.6916ZM84.7927 27.905C84.4269 28.1353 83.7225 28.1251 83.7191 28.5823C83.9528 28.6636 84.244 28.8397 84.4235 28.7618C84.664 28.6602 84.8197 28.3622 84.9958 28.1319C85.006 28.1183 84.8672 27.9896 84.7927 27.905Z" fill="black"/>
</svg>
